<svg preserveAspectRatio="none" width="100%" height="100%" overflow="visible" style="display: block;" viewBox="0 0 24 24" fill="none" xmlns="http://www.w3.org/2000/svg">
<g id="analytics-01-stroke-rounded 1">
<path id="Vector" d="M7 17V13" stroke="var(--stroke-0, #1D1D1F)" stroke-width="2" stroke-linecap="round"/>
<path id="Vector_2" d="M12 17V7" stroke="var(--stroke-0, #1D1D1F)" stroke-width="2" stroke-linecap="round"/>
<path id="Vector_3" d="M17 17V11" stroke="var(--stroke-0, #1D1D1F)" stroke-width="2" stroke-linecap="round"/>
<path id="Vector_4" d="M2.5 12C2.5 7.52166 2.5 5.28249 3.89124 3.89124C5.28249 2.5 7.52166 2.5 12 2.5C16.4783 2.5 18.7175 2.5 20.1088 3.89124C21.5 5.28249 21.5 7.52166 21.5 12C21.5 16.4783 21.5 18.7175 20.1088 20.1088C18.7175 21.5 16.4783 21.5 12 21.5C7.52166 21.5 5.28249 21.5 3.89124 20.1088C2.5 18.7175 2.5 16.4783 2.5 12Z" stroke="var(--stroke-0, #1D1D1F)" stroke-width="2" stroke-linejoin="round"/>
</g>
</svg>
