<svg preserveAspectRatio="none" width="100%" height="100%" overflow="visible" style="display: block;" viewBox="0 0 23 23" fill="none" xmlns="http://www.w3.org/2000/svg">
<g id="filter-stroke-rounded (1) 1">
<path id="Vector" d="M8.4884 11.985C6.10363 10.202 4.40416 8.24085 3.4762 7.13831C3.18895 6.79701 3.09482 6.54724 3.03823 6.10727C2.84444 4.60077 2.74755 3.84752 3.18929 3.36126C3.63103 2.875 4.41221 2.875 5.97457 2.875H17.0255C18.5878 2.875 19.369 2.875 19.8107 3.36126C20.2525 3.84752 20.1556 4.60077 19.9618 6.10728C19.9052 6.54725 19.8111 6.79702 19.5237 7.13831C18.5945 8.24226 16.8917 10.2069 14.5021 11.9921C14.2859 12.1537 14.1434 12.4168 14.1169 12.7088C13.8802 15.3257 13.6619 16.759 13.526 17.484C13.3067 18.6546 11.6468 19.3589 10.7582 19.9873C10.2293 20.3613 9.58745 19.9161 9.51891 19.3371C9.38825 18.2333 9.14213 15.9911 8.87347 12.7088C8.84934 12.4142 8.70632 12.1479 8.4884 11.985Z" stroke="var(--stroke-0, #1D1D1F)" stroke-width="2" stroke-linecap="round" stroke-linejoin="round"/>
</g>
</svg>
